<?xml version="1.0" encoding="UTF-8"?>
<svg xmlns="http://www.w3.org/2000/svg" xmlns:xlink="http://www.w3.org/1999/xlink" width="378pt" height="226pt" viewBox="0 0 378 226" version="1.1">
<defs>
<clipPath id="clip1">
  <path d="M 88 9 L 91 9 L 91 178.875 L 88 178.875 Z M 88 9 "/>
</clipPath>
<clipPath id="clip2">
  <path d="M 129 9 L 131 9 L 131 178.875 L 129 178.875 Z M 129 9 "/>
</clipPath>
<clipPath id="clip3">
  <path d="M 170 9 L 172 9 L 172 178.875 L 170 178.875 Z M 170 9 "/>
</clipPath>
<clipPath id="clip4">
  <path d="M 211 9 L 213 9 L 213 178.875 L 211 178.875 Z M 211 9 "/>
</clipPath>
<clipPath id="clip5">
  <path d="M 251 9 L 254 9 L 254 178.875 L 251 178.875 Z M 251 9 "/>
</clipPath>
<clipPath id="clip6">
  <path d="M 292 9 L 295 9 L 295 178.875 L 292 178.875 Z M 292 9 "/>
</clipPath>
<clipPath id="clip7">
  <path d="M 333 9 L 335 9 L 335 178.875 L 333 178.875 Z M 333 9 "/>
</clipPath>
<clipPath id="clip8">
  <path d="M 54.726562 170 L 368.601562 170 L 368.601562 172 L 54.726562 172 Z M 54.726562 170 "/>
</clipPath>
<clipPath id="clip9">
  <path d="M 54.726562 131 L 368.601562 131 L 368.601562 134 L 54.726562 134 Z M 54.726562 131 "/>
</clipPath>
<clipPath id="clip10">
  <path d="M 54.726562 93 L 368.601562 93 L 368.601562 95 L 54.726562 95 Z M 54.726562 93 "/>
</clipPath>
<clipPath id="clip11">
  <path d="M 54.726562 54 L 368.601562 54 L 368.601562 56 L 54.726562 56 Z M 54.726562 54 "/>
</clipPath>
<clipPath id="clip12">
  <path d="M 54.726562 15 L 368.601562 15 L 368.601562 18 L 54.726562 18 Z M 54.726562 15 "/>
</clipPath>
<filter id="alpha" filterUnits="objectBoundingBox" x="0%" y="0%" width="100%" height="100%">
  <feColorMatrix type="matrix" in="SourceGraphic" values="0 0 0 0 1 0 0 0 0 1 0 0 0 0 1 0 0 0 1 0"/>
</filter>
<mask id="mask0">
  <g filter="url(#alpha)">
<rect x="0" y="0" width="378" height="226" style="fill:rgb(0%,0%,0%);fill-opacity:0.8;stroke:none;"/>
  </g>
</mask>
<clipPath id="clip13">
  <rect width="378" height="226"/>
</clipPath>
<g id="surface6" clip-path="url(#clip13)">
<path style="fill-rule:nonzero;fill:rgb(100%,100%,100%);fill-opacity:1;stroke-width:1;stroke-linecap:butt;stroke-linejoin:miter;stroke:rgb(80%,80%,80%);stroke-opacity:1;stroke-miterlimit:4;" d="M 50.78125 59.234375 L 152.05625 59.234375 C 153.390625 59.234375 154.05625 58.56875 154.05625 57.234375 L 154.05625 14.2 C 154.05625 12.865625 153.390625 12.2 152.05625 12.2 L 50.78125 12.2 C 49.446875 12.2 48.78125 12.865625 48.78125 14.2 L 48.78125 57.234375 C 48.78125 58.56875 49.446875 59.234375 50.78125 59.234375 Z M 50.78125 59.234375 " transform="matrix(1.25,0,0,1.25,0,0)"/>
</g>
</defs>
<g id="surface1">
<path style=" stroke:none;fill-rule:nonzero;fill:rgb(100%,100%,100%);fill-opacity:1;" d="M 54.726562 178.875 L 368.601562 178.875 L 368.601562 9 L 54.726562 9 Z M 54.726562 178.875 "/>
<g clip-path="url(#clip1)" clip-rule="nonzero">
<path style="fill:none;stroke-width:0.8;stroke-linecap:square;stroke-linejoin:round;stroke:rgb(69.019608%,69.019608%,69.019608%);stroke-opacity:1;stroke-miterlimit:4;" d="M 71.5125 143.1 L 71.5125 7.2 " transform="matrix(1.25,0,0,1.25,0,0)"/>
</g>
<path style="fill:none;stroke-width:0.8;stroke-linecap:butt;stroke-linejoin:round;stroke:rgb(0%,0%,0%);stroke-opacity:1;stroke-miterlimit:4;" d="M 0.000764 0 L 0.000764 3.5 " transform="matrix(1.25,0,0,1.25,89.38967,178.875)"/>
<path style=" stroke:none;fill-rule:nonzero;fill:rgb(0%,0%,0%);fill-opacity:1;" d="M 81.5 192.6875 L 89.324219 192.6875 L 89.324219 193.722656 L 81.5 193.722656 Z M 81.5 192.6875 "/>
<path style=" stroke:none;fill-rule:nonzero;fill:rgb(0%,0%,0%);fill-opacity:1;" d="M 94.777344 192.078125 C 94.222656 192.078125 93.785156 192.265625 93.460938 192.644531 C 93.136719 193.023438 92.976562 193.539062 92.976562 194.199219 C 92.976562 194.855469 93.136719 195.371094 93.460938 195.753906 C 93.785156 196.132812 94.222656 196.324219 94.777344 196.324219 C 95.328125 196.324219 95.769531 196.132812 96.089844 195.753906 C 96.414062 195.371094 96.574219 194.855469 96.574219 194.199219 C 96.574219 193.539062 96.414062 193.023438 96.089844 192.644531 C 95.769531 192.265625 95.328125 192.078125 94.777344 192.078125 Z M 97.222656 188.210938 L 97.222656 189.335938 C 96.914062 189.1875 96.601562 189.078125 96.285156 189 C 95.972656 188.921875 95.660156 188.882812 95.347656 188.882812 C 94.535156 188.882812 93.914062 189.15625 93.484375 189.707031 C 93.054688 190.257812 92.808594 191.085938 92.75 192.199219 C 92.988281 191.84375 93.289062 191.570312 93.652344 191.382812 C 94.015625 191.195312 94.414062 191.101562 94.847656 191.101562 C 95.765625 191.101562 96.488281 191.378906 97.019531 191.933594 C 97.550781 192.488281 97.816406 193.242188 97.816406 194.199219 C 97.816406 195.136719 97.539062 195.886719 96.984375 196.453125 C 96.433594 197.019531 95.695312 197.300781 94.777344 197.300781 C 93.722656 197.300781 92.914062 196.898438 92.359375 196.089844 C 91.800781 195.28125 91.523438 194.109375 91.523438 192.578125 C 91.523438 191.136719 91.863281 189.988281 92.546875 189.132812 C 93.230469 188.273438 94.148438 187.847656 95.300781 187.847656 C 95.609375 187.847656 95.921875 187.875 96.238281 187.9375 C 96.550781 188 96.882812 188.089844 97.222656 188.210938 Z M 97.222656 188.210938 "/>
<g clip-path="url(#clip2)" clip-rule="nonzero">
<path style="fill:none;stroke-width:0.8;stroke-linecap:square;stroke-linejoin:round;stroke:rgb(69.019608%,69.019608%,69.019608%);stroke-opacity:1;stroke-miterlimit:4;" d="M 104.146875 143.1 L 104.146875 7.2 " transform="matrix(1.25,0,0,1.25,0,0)"/>
</g>
<path style="fill:none;stroke-width:0.8;stroke-linecap:butt;stroke-linejoin:round;stroke:rgb(0%,0%,0%);stroke-opacity:1;stroke-miterlimit:4;" d="M 0.00144 0 L 0.00144 3.5 " transform="matrix(1.25,0,0,1.25,130.181794,178.875)"/>
<path style=" stroke:none;fill-rule:nonzero;fill:rgb(0%,0%,0%);fill-opacity:1;" d="M 122.292969 192.6875 L 130.117188 192.6875 L 130.117188 193.722656 L 122.292969 193.722656 Z M 122.292969 192.6875 "/>
<path style=" stroke:none;fill-rule:nonzero;fill:rgb(0%,0%,0%);fill-opacity:1;" d="M 136.167969 189.085938 L 133.054688 193.949219 L 136.167969 193.949219 Z M 135.84375 188.011719 L 137.394531 188.011719 L 137.394531 193.949219 L 138.695312 193.949219 L 138.695312 194.976562 L 137.394531 194.976562 L 137.394531 197.125 L 136.167969 197.125 L 136.167969 194.976562 L 132.054688 194.976562 L 132.054688 193.785156 Z M 135.84375 188.011719 "/>
<g clip-path="url(#clip3)" clip-rule="nonzero">
<path style="fill:none;stroke-width:0.8;stroke-linecap:square;stroke-linejoin:round;stroke:rgb(69.019608%,69.019608%,69.019608%);stroke-opacity:1;stroke-miterlimit:4;" d="M 136.778125 143.1 L 136.778125 7.2 " transform="matrix(1.25,0,0,1.25,0,0)"/>
</g>
<path style="fill:none;stroke-width:0.8;stroke-linecap:butt;stroke-linejoin:round;stroke:rgb(0%,0%,0%);stroke-opacity:1;stroke-miterlimit:4;" d="M -0.00101 0 L -0.00101 3.5 " transform="matrix(1.25,0,0,1.25,170.973919,178.875)"/>
<path style=" stroke:none;fill-rule:nonzero;fill:rgb(0%,0%,0%);fill-opacity:1;" d="M 163.085938 192.6875 L 170.910156 192.6875 L 170.910156 193.722656 L 163.085938 193.722656 Z M 163.085938 192.6875 "/>
<path style=" stroke:none;fill-rule:nonzero;fill:rgb(0%,0%,0%);fill-opacity:1;" d="M 174.632812 196.085938 L 178.933594 196.085938 L 178.933594 197.125 L 173.148438 197.125 L 173.148438 196.085938 C 173.617188 195.601562 174.253906 194.953125 175.0625 194.136719 C 175.871094 193.320312 176.378906 192.792969 176.585938 192.558594 C 176.980469 192.113281 177.253906 191.738281 177.410156 191.433594 C 177.570312 191.125 177.648438 190.824219 177.648438 190.527344 C 177.648438 190.042969 177.476562 189.648438 177.136719 189.34375 C 176.796875 189.035156 176.355469 188.882812 175.808594 188.882812 C 175.421875 188.882812 175.015625 188.949219 174.585938 189.085938 C 174.15625 189.21875 173.699219 189.421875 173.210938 189.695312 L 173.210938 188.449219 C 173.707031 188.25 174.167969 188.101562 174.601562 188 C 175.03125 187.898438 175.429688 187.847656 175.785156 187.847656 C 176.730469 187.847656 177.484375 188.082031 178.042969 188.554688 C 178.605469 189.027344 178.886719 189.65625 178.886719 190.445312 C 178.886719 190.820312 178.816406 191.175781 178.675781 191.511719 C 178.535156 191.847656 178.28125 192.242188 177.910156 192.699219 C 177.808594 192.816406 177.484375 193.15625 176.9375 193.722656 C 176.394531 194.285156 175.625 195.074219 174.632812 196.085938 Z M 174.632812 196.085938 "/>
<g clip-path="url(#clip4)" clip-rule="nonzero">
<path style="fill:none;stroke-width:0.8;stroke-linecap:square;stroke-linejoin:round;stroke:rgb(69.019608%,69.019608%,69.019608%);stroke-opacity:1;stroke-miterlimit:4;" d="M 169.4125 143.1 L 169.4125 7.2 " transform="matrix(1.25,0,0,1.25,0,0)"/>
</g>
<path style="fill:none;stroke-width:0.8;stroke-linecap:butt;stroke-linejoin:round;stroke:rgb(0%,0%,0%);stroke-opacity:1;stroke-miterlimit:4;" d="M -0.000334 0 L -0.000334 3.5 " transform="matrix(1.25,0,0,1.25,211.766042,178.875)"/>
<path style=" stroke:none;fill-rule:nonzero;fill:rgb(0%,0%,0%);fill-opacity:1;" d="M 211.761719 188.824219 C 211.128906 188.824219 210.652344 189.136719 210.332031 189.761719 C 210.011719 190.382812 209.851562 191.324219 209.851562 192.578125 C 209.851562 193.824219 210.011719 194.761719 210.332031 195.386719 C 210.652344 196.011719 211.128906 196.324219 211.761719 196.324219 C 212.402344 196.324219 212.878906 196.011719 213.199219 195.386719 C 213.519531 194.761719 213.679688 193.824219 213.679688 192.578125 C 213.679688 191.324219 213.519531 190.382812 213.199219 189.761719 C 212.878906 189.136719 212.402344 188.824219 211.761719 188.824219 Z M 211.761719 187.847656 C 212.785156 187.847656 213.566406 188.25 214.105469 189.058594 C 214.644531 189.867188 214.914062 191.039062 214.914062 192.578125 C 214.914062 194.109375 214.644531 195.28125 214.105469 196.089844 C 213.566406 196.898438 212.785156 197.300781 211.761719 197.300781 C 210.742188 197.300781 209.960938 196.898438 209.421875 196.089844 C 208.882812 195.28125 208.613281 194.109375 208.613281 192.578125 C 208.613281 191.039062 208.882812 189.867188 209.421875 189.058594 C 209.960938 188.25 210.742188 187.847656 211.761719 187.847656 Z M 211.761719 187.847656 "/>
<g clip-path="url(#clip5)" clip-rule="nonzero">
<path style="fill:none;stroke-width:0.8;stroke-linecap:square;stroke-linejoin:round;stroke:rgb(69.019608%,69.019608%,69.019608%);stroke-opacity:1;stroke-miterlimit:4;" d="M 202.046875 143.1 L 202.046875 7.2 " transform="matrix(1.25,0,0,1.25,0,0)"/>
</g>
<path style="fill:none;stroke-width:0.8;stroke-linecap:butt;stroke-linejoin:round;stroke:rgb(0%,0%,0%);stroke-opacity:1;stroke-miterlimit:4;" d="M 0.000341 0 L 0.000341 3.5 " transform="matrix(1.25,0,0,1.25,252.558168,178.875)"/>
<path style=" stroke:none;fill-rule:nonzero;fill:rgb(0%,0%,0%);fill-opacity:1;" d="M 250.980469 196.085938 L 255.28125 196.085938 L 255.28125 197.125 L 249.496094 197.125 L 249.496094 196.085938 C 249.964844 195.601562 250.601562 194.953125 251.410156 194.136719 C 252.21875 193.320312 252.726562 192.792969 252.933594 192.558594 C 253.328125 192.113281 253.601562 191.738281 253.757812 191.433594 C 253.917969 191.125 253.996094 190.824219 253.996094 190.527344 C 253.996094 190.042969 253.824219 189.648438 253.484375 189.34375 C 253.144531 189.035156 252.703125 188.882812 252.15625 188.882812 C 251.769531 188.882812 251.363281 188.949219 250.933594 189.085938 C 250.503906 189.21875 250.046875 189.421875 249.558594 189.695312 L 249.558594 188.449219 C 250.054688 188.25 250.519531 188.101562 250.949219 188 C 251.382812 187.898438 251.777344 187.847656 252.132812 187.847656 C 253.078125 187.847656 253.832031 188.082031 254.390625 188.554688 C 254.953125 189.027344 255.234375 189.65625 255.234375 190.445312 C 255.234375 190.820312 255.164062 191.175781 255.023438 191.511719 C 254.882812 191.847656 254.628906 192.242188 254.257812 192.699219 C 254.15625 192.816406 253.832031 193.15625 253.285156 193.722656 C 252.742188 194.285156 251.972656 195.074219 250.980469 196.085938 Z M 250.980469 196.085938 "/>
<g clip-path="url(#clip6)" clip-rule="nonzero">
<path style="fill:none;stroke-width:0.8;stroke-linecap:square;stroke-linejoin:round;stroke:rgb(69.019608%,69.019608%,69.019608%);stroke-opacity:1;stroke-miterlimit:4;" d="M 234.68125 143.1 L 234.68125 7.2 " transform="matrix(1.25,0,0,1.25,0,0)"/>
</g>
<path style="fill:none;stroke-width:0.8;stroke-linecap:butt;stroke-linejoin:round;stroke:rgb(0%,0%,0%);stroke-opacity:1;stroke-miterlimit:4;" d="M 0.001017 0 L 0.001017 3.5 " transform="matrix(1.25,0,0,1.25,293.350291,178.875)"/>
<path style=" stroke:none;fill-rule:nonzero;fill:rgb(0%,0%,0%);fill-opacity:1;" d="M 294.097656 189.085938 L 290.984375 193.949219 L 294.097656 193.949219 Z M 293.773438 188.011719 L 295.324219 188.011719 L 295.324219 193.949219 L 296.625 193.949219 L 296.625 194.976562 L 295.324219 194.976562 L 295.324219 197.125 L 294.097656 197.125 L 294.097656 194.976562 L 289.984375 194.976562 L 289.984375 193.785156 Z M 293.773438 188.011719 "/>
<g clip-path="url(#clip7)" clip-rule="nonzero">
<path style="fill:none;stroke-width:0.8;stroke-linecap:square;stroke-linejoin:round;stroke:rgb(69.019608%,69.019608%,69.019608%);stroke-opacity:1;stroke-miterlimit:4;" d="M 267.3125 143.1 L 267.3125 7.2 " transform="matrix(1.25,0,0,1.25,0,0)"/>
</g>
<path style="fill:none;stroke-width:0.8;stroke-linecap:butt;stroke-linejoin:round;stroke:rgb(0%,0%,0%);stroke-opacity:1;stroke-miterlimit:4;" d="M -0.001432 0 L -0.001432 3.5 " transform="matrix(1.25,0,0,1.25,334.142415,178.875)"/>
<path style=" stroke:none;fill-rule:nonzero;fill:rgb(0%,0%,0%);fill-opacity:1;" d="M 334.292969 192.078125 C 333.738281 192.078125 333.300781 192.265625 332.976562 192.644531 C 332.652344 193.023438 332.492188 193.539062 332.492188 194.199219 C 332.492188 194.855469 332.652344 195.371094 332.976562 195.753906 C 333.300781 196.132812 333.738281 196.324219 334.292969 196.324219 C 334.847656 196.324219 335.285156 196.132812 335.605469 195.753906 C 335.929688 195.371094 336.089844 194.855469 336.089844 194.199219 C 336.089844 193.539062 335.929688 193.023438 335.605469 192.644531 C 335.285156 192.265625 334.847656 192.078125 334.292969 192.078125 Z M 336.738281 188.210938 L 336.738281 189.335938 C 336.429688 189.1875 336.117188 189.078125 335.800781 189 C 335.488281 188.921875 335.175781 188.882812 334.863281 188.882812 C 334.050781 188.882812 333.429688 189.15625 333 189.707031 C 332.570312 190.257812 332.328125 191.085938 332.265625 192.199219 C 332.503906 191.84375 332.804688 191.570312 333.167969 191.382812 C 333.53125 191.195312 333.929688 191.101562 334.363281 191.101562 C 335.28125 191.101562 336.003906 191.378906 336.535156 191.933594 C 337.066406 192.488281 337.332031 193.242188 337.332031 194.199219 C 337.332031 195.136719 337.054688 195.886719 336.5 196.453125 C 335.949219 197.019531 335.210938 197.300781 334.292969 197.300781 C 333.238281 197.300781 332.433594 196.898438 331.875 196.089844 C 331.316406 195.28125 331.039062 194.109375 331.039062 192.578125 C 331.039062 191.136719 331.378906 189.988281 332.0625 189.132812 C 332.746094 188.273438 333.664062 187.847656 334.816406 187.847656 C 335.125 187.847656 335.4375 187.875 335.753906 187.9375 C 336.070312 188 336.398438 188.089844 336.738281 188.210938 Z M 336.738281 188.210938 "/>
<path style=" stroke:none;fill-rule:nonzero;fill:rgb(0%,0%,0%);fill-opacity:1;" d="M 214.828125 207.386719 L 212.351562 210.710938 L 214.953125 214.222656 L 213.628906 214.222656 L 211.640625 211.535156 L 209.648438 214.222656 L 208.324219 214.222656 L 210.980469 210.644531 L 208.550781 207.386719 L 209.875 207.386719 L 211.6875 209.820312 L 213.5 207.386719 Z M 214.828125 207.386719 "/>
<g clip-path="url(#clip8)" clip-rule="nonzero">
<path style="fill:none;stroke-width:0.8;stroke-linecap:square;stroke-linejoin:round;stroke:rgb(69.019608%,69.019608%,69.019608%);stroke-opacity:1;stroke-miterlimit:4;" d="M 43.78125 136.921875 L 294.88125 136.921875 " transform="matrix(1.25,0,0,1.25,0,0)"/>
</g>
<path style="fill:none;stroke-width:0.8;stroke-linecap:butt;stroke-linejoin:round;stroke:rgb(0%,0%,0%);stroke-opacity:1;stroke-miterlimit:4;" d="M 0 -0.000852 L -3.5 -0.000852 " transform="matrix(1.25,0,0,1.25,54.726562,171.153409)"/>
<path style=" stroke:none;fill-rule:nonzero;fill:rgb(0%,0%,0%);fill-opacity:1;" d="M 30.070312 167.601562 C 29.4375 167.601562 28.960938 167.914062 28.640625 168.539062 C 28.320312 169.164062 28.160156 170.101562 28.160156 171.355469 C 28.160156 172.605469 28.320312 173.542969 28.640625 174.167969 C 28.960938 174.792969 29.4375 175.105469 30.070312 175.105469 C 30.710938 175.105469 31.1875 174.792969 31.507812 174.167969 C 31.828125 173.542969 31.988281 172.605469 31.988281 171.355469 C 31.988281 170.101562 31.828125 169.164062 31.507812 168.539062 C 31.1875 167.914062 30.710938 167.601562 30.070312 167.601562 Z M 30.070312 166.625 C 31.09375 166.625 31.875 167.03125 32.414062 167.839844 C 32.953125 168.644531 33.21875 169.816406 33.21875 171.355469 C 33.21875 172.890625 32.953125 174.0625 32.414062 174.871094 C 31.875 175.675781 31.09375 176.082031 30.070312 176.082031 C 29.050781 176.082031 28.269531 175.675781 27.730469 174.871094 C 27.191406 174.0625 26.921875 172.890625 26.921875 171.355469 C 26.921875 169.816406 27.191406 168.644531 27.730469 167.839844 C 28.269531 167.03125 29.050781 166.625 30.070312 166.625 Z M 30.070312 166.625 "/>
<path style=" stroke:none;fill-rule:nonzero;fill:rgb(0%,0%,0%);fill-opacity:1;" d="M 35.386719 174.351562 L 36.675781 174.351562 L 36.675781 175.902344 L 35.386719 175.902344 Z M 35.386719 174.351562 "/>
<path style=" stroke:none;fill-rule:nonzero;fill:rgb(0%,0%,0%);fill-opacity:1;" d="M 41.996094 167.601562 C 41.363281 167.601562 40.886719 167.914062 40.566406 168.539062 C 40.246094 169.164062 40.085938 170.101562 40.085938 171.355469 C 40.085938 172.605469 40.246094 173.542969 40.566406 174.167969 C 40.886719 174.792969 41.363281 175.105469 41.996094 175.105469 C 42.636719 175.105469 43.113281 174.792969 43.433594 174.167969 C 43.753906 173.542969 43.914062 172.605469 43.914062 171.355469 C 43.914062 170.101562 43.753906 169.164062 43.433594 168.539062 C 43.113281 167.914062 42.636719 167.601562 41.996094 167.601562 Z M 41.996094 166.625 C 43.019531 166.625 43.800781 167.03125 44.339844 167.839844 C 44.878906 168.644531 45.148438 169.816406 45.148438 171.355469 C 45.148438 172.890625 44.878906 174.0625 44.339844 174.871094 C 43.800781 175.675781 43.019531 176.082031 41.996094 176.082031 C 40.976562 176.082031 40.195312 175.675781 39.65625 174.871094 C 39.117188 174.0625 38.847656 172.890625 38.847656 171.355469 C 38.847656 169.816406 39.117188 168.644531 39.65625 167.839844 C 40.195312 167.03125 40.976562 166.625 41.996094 166.625 Z M 41.996094 166.625 "/>
<g clip-path="url(#clip9)" clip-rule="nonzero">
<path style="fill:none;stroke-width:0.8;stroke-linecap:square;stroke-linejoin:round;stroke:rgb(69.019608%,69.019608%,69.019608%);stroke-opacity:1;stroke-miterlimit:4;" d="M 43.78125 105.953125 L 294.88125 105.953125 " transform="matrix(1.25,0,0,1.25,0,0)"/>
</g>
<path style="fill:none;stroke-width:0.8;stroke-linecap:butt;stroke-linejoin:round;stroke:rgb(0%,0%,0%);stroke-opacity:1;stroke-miterlimit:4;" d="M 0 -0.001349 L -3.5 -0.001349 " transform="matrix(1.25,0,0,1.25,54.726562,132.443093)"/>
<path style=" stroke:none;fill-rule:nonzero;fill:rgb(0%,0%,0%);fill-opacity:1;" d="M 30.070312 128.890625 C 29.4375 128.890625 28.960938 129.203125 28.640625 129.828125 C 28.320312 130.453125 28.160156 131.390625 28.160156 132.644531 C 28.160156 133.894531 28.320312 134.832031 28.640625 135.457031 C 28.960938 136.082031 29.4375 136.394531 30.070312 136.394531 C 30.710938 136.394531 31.1875 136.082031 31.507812 135.457031 C 31.828125 134.832031 31.988281 133.894531 31.988281 132.644531 C 31.988281 131.390625 31.828125 130.453125 31.507812 129.828125 C 31.1875 129.203125 30.710938 128.890625 30.070312 128.890625 Z M 30.070312 127.914062 C 31.09375 127.914062 31.875 128.320312 32.414062 129.128906 C 32.953125 129.933594 33.21875 131.109375 33.21875 132.644531 C 33.21875 134.179688 32.953125 135.351562 32.414062 136.160156 C 31.875 136.964844 31.09375 137.371094 30.070312 137.371094 C 29.050781 137.371094 28.269531 136.964844 27.730469 136.160156 C 27.191406 135.351562 26.921875 134.179688 26.921875 132.644531 C 26.921875 131.109375 27.191406 129.933594 27.730469 129.128906 C 28.269531 128.320312 29.050781 127.914062 30.070312 127.914062 Z M 30.070312 127.914062 "/>
<path style=" stroke:none;fill-rule:nonzero;fill:rgb(0%,0%,0%);fill-opacity:1;" d="M 35.386719 135.640625 L 36.675781 135.640625 L 36.675781 137.191406 L 35.386719 137.191406 Z M 35.386719 135.640625 "/>
<path style=" stroke:none;fill-rule:nonzero;fill:rgb(0%,0%,0%);fill-opacity:1;" d="M 39.574219 136.15625 L 41.589844 136.15625 L 41.589844 129.203125 L 39.398438 129.640625 L 39.398438 128.519531 L 41.578125 128.078125 L 42.808594 128.078125 L 42.808594 136.15625 L 44.824219 136.15625 L 44.824219 137.191406 L 39.574219 137.191406 Z M 39.574219 136.15625 "/>
<g clip-path="url(#clip10)" clip-rule="nonzero">
<path style="fill:none;stroke-width:0.8;stroke-linecap:square;stroke-linejoin:round;stroke:rgb(69.019608%,69.019608%,69.019608%);stroke-opacity:1;stroke-miterlimit:4;" d="M 43.78125 74.9875 L 294.88125 74.9875 " transform="matrix(1.25,0,0,1.25,0,0)"/>
</g>
<path style="fill:none;stroke-width:0.8;stroke-linecap:butt;stroke-linejoin:round;stroke:rgb(0%,0%,0%);stroke-opacity:1;stroke-miterlimit:4;" d="M 0 0.001279 L -3.5 0.001279 " transform="matrix(1.25,0,0,1.25,54.726562,93.732776)"/>
<path style=" stroke:none;fill-rule:nonzero;fill:rgb(0%,0%,0%);fill-opacity:1;" d="M 30.070312 90.179688 C 29.4375 90.179688 28.960938 90.492188 28.640625 91.117188 C 28.320312 91.742188 28.160156 92.679688 28.160156 93.933594 C 28.160156 95.183594 28.320312 96.121094 28.640625 96.746094 C 28.960938 97.371094 29.4375 97.683594 30.070312 97.683594 C 30.710938 97.683594 31.1875 97.371094 31.507812 96.746094 C 31.828125 96.121094 31.988281 95.183594 31.988281 93.933594 C 31.988281 92.679688 31.828125 91.742188 31.507812 91.117188 C 31.1875 90.492188 30.710938 90.179688 30.070312 90.179688 Z M 30.070312 89.203125 C 31.09375 89.203125 31.875 89.609375 32.414062 90.417969 C 32.953125 91.226562 33.21875 92.398438 33.21875 93.933594 C 33.21875 95.46875 32.953125 96.640625 32.414062 97.449219 C 31.875 98.257812 31.09375 98.660156 30.070312 98.660156 C 29.050781 98.660156 28.269531 98.257812 27.730469 97.449219 C 27.191406 96.640625 26.921875 95.46875 26.921875 93.933594 C 26.921875 92.398438 27.191406 91.226562 27.730469 90.417969 C 28.269531 89.609375 29.050781 89.203125 30.070312 89.203125 Z M 30.070312 89.203125 "/>
<path style=" stroke:none;fill-rule:nonzero;fill:rgb(0%,0%,0%);fill-opacity:1;" d="M 35.386719 96.929688 L 36.675781 96.929688 L 36.675781 98.480469 L 35.386719 98.480469 Z M 35.386719 96.929688 "/>
<path style=" stroke:none;fill-rule:nonzero;fill:rgb(0%,0%,0%);fill-opacity:1;" d="M 40.421875 97.445312 L 44.726562 97.445312 L 44.726562 98.480469 L 38.941406 98.480469 L 38.941406 97.445312 C 39.40625 96.960938 40.042969 96.3125 40.851562 95.496094 C 41.660156 94.679688 42.167969 94.152344 42.375 93.914062 C 42.769531 93.472656 43.046875 93.097656 43.203125 92.789062 C 43.359375 92.484375 43.4375 92.179688 43.4375 91.882812 C 43.4375 91.398438 43.269531 91.003906 42.929688 90.699219 C 42.589844 90.394531 42.144531 90.242188 41.601562 90.242188 C 41.214844 90.242188 40.804688 90.308594 40.375 90.441406 C 39.945312 90.578125 39.488281 90.78125 39 91.054688 L 39 89.808594 C 39.496094 89.609375 39.960938 89.457031 40.390625 89.355469 C 40.824219 89.253906 41.21875 89.203125 41.578125 89.203125 C 42.519531 89.203125 43.273438 89.441406 43.835938 89.914062 C 44.394531 90.386719 44.675781 91.015625 44.675781 91.804688 C 44.675781 92.179688 44.605469 92.535156 44.464844 92.871094 C 44.324219 93.207031 44.070312 93.601562 43.699219 94.054688 C 43.597656 94.175781 43.273438 94.515625 42.730469 95.078125 C 42.183594 95.644531 41.414062 96.433594 40.421875 97.445312 Z M 40.421875 97.445312 "/>
<g clip-path="url(#clip11)" clip-rule="nonzero">
<path style="fill:none;stroke-width:0.8;stroke-linecap:square;stroke-linejoin:round;stroke:rgb(69.019608%,69.019608%,69.019608%);stroke-opacity:1;stroke-miterlimit:4;" d="M 43.78125 44.01875 L 294.88125 44.01875 " transform="matrix(1.25,0,0,1.25,0,0)"/>
</g>
<path style="fill:none;stroke-width:0.8;stroke-linecap:butt;stroke-linejoin:round;stroke:rgb(0%,0%,0%);stroke-opacity:1;stroke-miterlimit:4;" d="M 0 0.000782 L -3.5 0.000782 " transform="matrix(1.25,0,0,1.25,54.726562,55.02246)"/>
<path style=" stroke:none;fill-rule:nonzero;fill:rgb(0%,0%,0%);fill-opacity:1;" d="M 30.070312 51.46875 C 29.4375 51.46875 28.960938 51.78125 28.640625 52.40625 C 28.320312 53.03125 28.160156 53.96875 28.160156 55.222656 C 28.160156 56.472656 28.320312 57.410156 28.640625 58.035156 C 28.960938 58.660156 29.4375 58.972656 30.070312 58.972656 C 30.710938 58.972656 31.1875 58.660156 31.507812 58.035156 C 31.828125 57.410156 31.988281 56.472656 31.988281 55.222656 C 31.988281 53.96875 31.828125 53.03125 31.507812 52.40625 C 31.1875 51.78125 30.710938 51.46875 30.070312 51.46875 Z M 30.070312 50.492188 C 31.09375 50.492188 31.875 50.898438 32.414062 51.707031 C 32.953125 52.515625 33.21875 53.6875 33.21875 55.222656 C 33.21875 56.757812 32.953125 57.929688 32.414062 58.738281 C 31.875 59.546875 31.09375 59.949219 30.070312 59.949219 C 29.050781 59.949219 28.269531 59.546875 27.730469 58.738281 C 27.191406 57.929688 26.921875 56.757812 26.921875 55.222656 C 26.921875 53.6875 27.191406 52.515625 27.730469 51.707031 C 28.269531 50.898438 29.050781 50.492188 30.070312 50.492188 Z M 30.070312 50.492188 "/>
<path style=" stroke:none;fill-rule:nonzero;fill:rgb(0%,0%,0%);fill-opacity:1;" d="M 35.386719 58.21875 L 36.675781 58.21875 L 36.675781 59.769531 L 35.386719 59.769531 Z M 35.386719 58.21875 "/>
<path style=" stroke:none;fill-rule:nonzero;fill:rgb(0%,0%,0%);fill-opacity:1;" d="M 43.097656 54.855469 C 43.6875 54.984375 44.144531 55.246094 44.476562 55.644531 C 44.808594 56.042969 44.976562 56.535156 44.976562 57.121094 C 44.976562 58.019531 44.664062 58.71875 44.046875 59.210938 C 43.429688 59.703125 42.550781 59.949219 41.410156 59.949219 C 41.027344 59.949219 40.636719 59.910156 40.230469 59.835938 C 39.824219 59.761719 39.40625 59.648438 38.976562 59.496094 L 38.976562 58.304688 C 39.316406 58.503906 39.691406 58.65625 40.097656 58.757812 C 40.503906 58.859375 40.929688 58.910156 41.375 58.910156 C 42.148438 58.910156 42.734375 58.757812 43.140625 58.453125 C 43.546875 58.148438 43.75 57.703125 43.75 57.121094 C 43.75 56.585938 43.558594 56.164062 43.183594 55.863281 C 42.808594 55.558594 42.285156 55.40625 41.613281 55.40625 L 40.550781 55.40625 L 40.550781 54.394531 L 41.664062 54.394531 C 42.269531 54.394531 42.730469 54.273438 43.054688 54.03125 C 43.375 53.789062 43.535156 53.441406 43.535156 52.984375 C 43.535156 52.515625 43.371094 52.15625 43.039062 51.90625 C 42.707031 51.65625 42.230469 51.53125 41.613281 51.53125 C 41.273438 51.53125 40.914062 51.566406 40.527344 51.640625 C 40.140625 51.714844 39.714844 51.828125 39.25 51.980469 L 39.25 50.882812 C 39.71875 50.753906 40.15625 50.65625 40.566406 50.589844 C 40.976562 50.527344 41.359375 50.492188 41.722656 50.492188 C 42.660156 50.492188 43.398438 50.707031 43.945312 51.132812 C 44.488281 51.558594 44.761719 52.132812 44.761719 52.855469 C 44.761719 53.359375 44.617188 53.785156 44.328125 54.132812 C 44.039062 54.480469 43.628906 54.722656 43.097656 54.855469 Z M 43.097656 54.855469 "/>
<g clip-path="url(#clip12)" clip-rule="nonzero">
<path style="fill:none;stroke-width:0.8;stroke-linecap:square;stroke-linejoin:round;stroke:rgb(69.019608%,69.019608%,69.019608%);stroke-opacity:1;stroke-miterlimit:4;" d="M 43.78125 13.05 L 294.88125 13.05 " transform="matrix(1.25,0,0,1.25,0,0)"/>
</g>
<path style="fill:none;stroke-width:0.8;stroke-linecap:butt;stroke-linejoin:round;stroke:rgb(0%,0%,0%);stroke-opacity:1;stroke-miterlimit:4;" d="M 0 0.000285 L -3.5 0.000285 " transform="matrix(1.25,0,0,1.25,54.726562,16.312144)"/>
<path style=" stroke:none;fill-rule:nonzero;fill:rgb(0%,0%,0%);fill-opacity:1;" d="M 30.070312 12.761719 C 29.4375 12.761719 28.960938 13.074219 28.640625 13.699219 C 28.320312 14.320312 28.160156 15.261719 28.160156 16.515625 C 28.160156 17.761719 28.320312 18.699219 28.640625 19.324219 C 28.960938 19.949219 29.4375 20.261719 30.070312 20.261719 C 30.710938 20.261719 31.1875 19.949219 31.507812 19.324219 C 31.828125 18.699219 31.988281 17.761719 31.988281 16.515625 C 31.988281 15.261719 31.828125 14.320312 31.507812 13.699219 C 31.1875 13.074219 30.710938 12.761719 30.070312 12.761719 Z M 30.070312 11.785156 C 31.09375 11.785156 31.875 12.1875 32.414062 12.996094 C 32.953125 13.804688 33.21875 14.976562 33.21875 16.515625 C 33.21875 18.046875 32.953125 19.21875 32.414062 20.027344 C 31.875 20.835938 31.09375 21.238281 30.070312 21.238281 C 29.050781 21.238281 28.269531 20.835938 27.730469 20.027344 C 27.191406 19.21875 26.921875 18.046875 26.921875 16.515625 C 26.921875 14.976562 27.191406 13.804688 27.730469 12.996094 C 28.269531 12.1875 29.050781 11.785156 30.070312 11.785156 Z M 30.070312 11.785156 "/>
<path style=" stroke:none;fill-rule:nonzero;fill:rgb(0%,0%,0%);fill-opacity:1;" d="M 35.386719 19.511719 L 36.675781 19.511719 L 36.675781 21.0625 L 35.386719 21.0625 Z M 35.386719 19.511719 "/>
<path style=" stroke:none;fill-rule:nonzero;fill:rgb(0%,0%,0%);fill-opacity:1;" d="M 42.75 13.023438 L 39.636719 17.886719 L 42.75 17.886719 Z M 42.425781 11.949219 L 43.976562 11.949219 L 43.976562 17.886719 L 45.277344 17.886719 L 45.277344 18.914062 L 43.976562 18.914062 L 43.976562 21.0625 L 42.75 21.0625 L 42.75 18.914062 L 38.636719 18.914062 L 38.636719 17.722656 Z M 42.425781 11.949219 "/>
<path style=" stroke:none;fill-rule:nonzero;fill:rgb(0%,0%,0%);fill-opacity:1;" d="M 17.472656 104.21875 L 21.097656 104.21875 L 21.097656 105.347656 L 11.664062 105.347656 L 11.664062 104.21875 L 12.699219 104.21875 C 12.292969 103.980469 11.992188 103.683594 11.796875 103.324219 C 11.597656 102.960938 11.5 102.53125 11.5 102.03125 C 11.5 101.203125 11.828125 100.527344 12.488281 100.007812 C 13.144531 99.488281 14.011719 99.230469 15.085938 99.230469 C 16.160156 99.230469 17.027344 99.488281 17.6875 100.007812 C 18.347656 100.527344 18.675781 101.203125 18.675781 102.03125 C 18.675781 102.53125 18.578125 102.960938 18.378906 103.324219 C 18.179688 103.683594 17.878906 103.980469 17.472656 104.21875 Z M 15.085938 100.394531 C 14.261719 100.394531 13.613281 100.566406 13.144531 100.90625 C 12.671875 101.246094 12.4375 101.710938 12.4375 102.304688 C 12.4375 102.902344 12.671875 103.367188 13.144531 103.707031 C 13.613281 104.046875 14.261719 104.21875 15.085938 104.21875 C 15.910156 104.21875 16.558594 104.046875 17.03125 103.707031 C 17.5 103.367188 17.734375 102.902344 17.734375 102.304688 C 17.734375 101.710938 17.5 101.246094 17.03125 100.90625 C 16.558594 100.566406 15.910156 100.394531 15.085938 100.394531 Z M 15.085938 100.394531 "/>
<path style=" stroke:none;fill-rule:nonzero;fill:rgb(0%,0%,0%);fill-opacity:1;" d="M 9.015625 94.671875 C 9.949219 95.214844 10.875 95.621094 11.792969 95.886719 C 12.707031 96.152344 13.632812 96.28125 14.574219 96.28125 C 15.511719 96.28125 16.445312 96.148438 17.367188 95.882812 C 18.289062 95.617188 19.214844 95.210938 20.148438 94.671875 L 20.148438 95.648438 C 19.191406 96.257812 18.25 96.714844 17.328125 97.015625 C 16.402344 97.320312 15.484375 97.472656 14.574219 97.472656 C 13.667969 97.472656 12.753906 97.320312 11.835938 97.019531 C 10.914062 96.71875 9.972656 96.261719 9.015625 95.648438 Z M 9.015625 94.671875 "/>
<path style=" stroke:none;fill-rule:nonzero;fill:rgb(0%,0%,0%);fill-opacity:1;" d="M 11.664062 86.808594 L 14.988281 89.28125 L 18.5 86.683594 L 18.5 88.007812 L 15.8125 89.996094 L 18.5 91.984375 L 18.5 93.3125 L 14.921875 90.65625 L 11.664062 93.085938 L 11.664062 91.761719 L 14.097656 89.949219 L 11.664062 88.136719 Z M 11.664062 86.808594 "/>
<path style=" stroke:none;fill-rule:nonzero;fill:rgb(0%,0%,0%);fill-opacity:1;" d="M 9.015625 85.269531 L 9.015625 84.292969 C 9.972656 83.683594 10.914062 83.226562 11.835938 82.925781 C 12.753906 82.621094 13.667969 82.46875 14.574219 82.46875 C 15.484375 82.46875 16.402344 82.621094 17.328125 82.925781 C 18.25 83.226562 19.191406 83.683594 20.148438 84.292969 L 20.148438 85.269531 C 19.214844 84.730469 18.289062 84.328125 17.367188 84.058594 C 16.445312 83.792969 15.511719 83.660156 14.574219 83.660156 C 13.632812 83.660156 12.707031 83.792969 11.792969 84.058594 C 10.875 84.328125 9.949219 84.730469 9.015625 85.269531 Z M 9.015625 85.269531 "/>
<path style="fill:none;stroke-width:1.5;stroke-linecap:square;stroke-linejoin:round;stroke:rgb(12.156863%,46.666667%,70.588235%);stroke-opacity:1;stroke-miterlimit:4;" d="M 55.19375 136.921875 L 108.225 136.8125 L 113.609375 136.565625 L 117.2 136.184375 L 119.971875 135.66875 L 122.25625 135.025 L 124.215625 134.259375 L 126.009375 133.33125 L 127.80625 132.1375 L 129.4375 130.778125 L 131.06875 129.1125 L 132.7 127.09375 L 134.33125 124.675 L 135.9625 121.8125 L 137.59375 118.46875 L 139.228125 114.60625 L 141.021875 109.734375 L 142.815625 104.196875 L 144.775 97.4125 L 146.896875 89.246875 L 149.50625 78.225 L 153.259375 61.240625 L 157.5 42.275 L 159.784375 33.1125 L 161.58125 26.821875 L 163.05 22.425 L 164.353125 19.171875 L 165.496875 16.884375 L 166.475 15.3625 L 167.45625 14.2625 L 168.271875 13.678125 L 169.0875 13.403125 L 169.740625 13.403125 L 170.390625 13.6 L 171.20625 14.121875 L 172.025 14.95 L 173.003125 16.33125 L 173.98125 18.125 L 175.125 20.71875 L 176.428125 24.2875 L 177.896875 29 L 179.69375 35.615625 L 181.8125 44.365625 L 184.9125 58.24375 L 190.4625 83.1625 L 192.909375 93.115625 L 195.03125 100.9 L 196.9875 107.3 L 198.784375 112.471875 L 200.578125 116.9875 L 202.209375 120.534375 L 203.840625 123.584375 L 205.471875 126.175 L 207.10625 128.35 L 208.7375 130.153125 L 210.36875 131.628125 L 212 132.825 L 213.79375 133.865625 L 215.753125 134.734375 L 217.875 135.421875 L 220.321875 135.971875 L 223.259375 136.390625 L 227.0125 136.678125 L 232.396875 136.85 L 243.003125 136.91875 L 283.46875 136.921875 " transform="matrix(1.25,0,0,1.25,0,0)"/>
<path style="fill:none;stroke-width:1.5;stroke-linecap:butt;stroke-linejoin:round;stroke:rgb(74.901961%,0%,74.901961%);stroke-opacity:1;stroke-dasharray:5.55,2.4;stroke-miterlimit:4;" d="M 55.19375 136.7875 L 65.8 136.521875 L 73.14375 136.125 L 79.01875 135.590625 L 83.9125 134.925 L 88.31875 134.10625 L 92.234375 133.153125 L 95.825 132.0625 L 99.25 130.8 L 102.5125 129.36875 L 105.778125 127.69375 L 109.040625 125.765625 L 112.303125 123.5625 L 115.56875 121.0875 L 118.99375 118.196875 L 122.584375 114.859375 L 126.5 110.903125 L 131.06875 105.95 L 138.246875 97.771875 L 144.6125 90.64375 L 148.528125 86.590625 L 151.790625 83.53125 L 154.565625 81.225 L 157.175 79.34375 L 159.459375 77.95625 L 161.74375 76.83125 L 163.865625 76.0375 L 165.821875 75.521875 L 167.78125 75.228125 L 169.740625 75.153125 L 171.696875 75.3 L 173.65625 75.66875 L 175.6125 76.25625 L 177.734375 77.125 L 179.85625 78.234375 L 182.140625 79.675 L 184.5875 81.48125 L 187.3625 83.821875 L 190.4625 86.75 L 194.05 90.46875 L 198.784375 95.721875 L 211.675 110.215625 L 215.753125 114.384375 L 219.50625 117.90625 L 222.93125 120.825 L 226.196875 123.328125 L 229.459375 125.55625 L 232.721875 127.5125 L 235.984375 129.2125 L 239.25 130.665625 L 242.675 131.953125 L 246.265625 133.0625 L 250.18125 134.034375 L 254.425 134.846875 L 259.15625 135.515625 L 264.540625 136.040625 L 270.903125 136.43125 L 279.225 136.709375 L 283.46875 136.784375 " transform="matrix(1.25,0,0,1.25,0,0)"/>
<path style="fill:none;stroke-width:1.5;stroke-linecap:butt;stroke-linejoin:round;stroke:rgb(0%,50.196078%,0%);stroke-opacity:1;stroke-dasharray:9.6,2.4,1.5,2.4;stroke-miterlimit:4;" d="M 55.19375 136.921875 L 157.175 136.8125 L 162.559375 136.565625 L 166.15 136.184375 L 168.921875 135.66875 L 171.20625 135.025 L 173.165625 134.259375 L 174.959375 133.33125 L 176.75625 132.1375 L 178.3875 130.778125 L 180.01875 129.1125 L 181.65 127.09375 L 183.28125 124.675 L 184.9125 121.8125 L 186.546875 118.46875 L 188.178125 114.60625 L 189.971875 109.734375 L 191.765625 104.196875 L 193.725 97.4125 L 195.846875 89.246875 L 198.45625 78.225 L 202.209375 61.240625 L 206.453125 42.275 L 208.7375 33.1125 L 210.53125 26.821875 L 212 22.425 L 213.30625 19.171875 L 214.446875 16.884375 L 215.425 15.3625 L 216.40625 14.2625 L 217.221875 13.678125 L 218.0375 13.403125 L 218.690625 13.403125 L 219.34375 13.6 L 220.159375 14.121875 L 220.975 14.95 L 221.953125 16.33125 L 222.93125 18.125 L 224.075 20.71875 L 225.378125 24.2875 L 226.846875 29 L 228.64375 35.615625 L 230.765625 44.365625 L 233.865625 58.24375 L 239.4125 83.1625 L 241.859375 93.115625 L 243.98125 100.9 L 245.9375 107.3 L 247.734375 112.471875 L 249.528125 116.9875 L 251.159375 120.534375 L 252.790625 123.584375 L 254.425 126.175 L 256.05625 128.35 L 257.6875 130.153125 L 259.31875 131.628125 L 260.95 132.825 L 262.74375 133.865625 L 264.703125 134.734375 L 266.825 135.421875 L 269.271875 135.971875 L 272.209375 136.390625 L 275.9625 136.678125 L 281.346875 136.85 L 283.46875 136.878125 " transform="matrix(1.25,0,0,1.25,0,0)"/>
<path style="fill:none;stroke-width:0.8;stroke-linecap:square;stroke-linejoin:miter;stroke:rgb(0%,0%,0%);stroke-opacity:1;stroke-miterlimit:4;" d="M 43.78125 143.1 L 43.78125 7.2 " transform="matrix(1.25,0,0,1.25,0,0)"/>
<path style="fill:none;stroke-width:0.8;stroke-linecap:square;stroke-linejoin:miter;stroke:rgb(0%,0%,0%);stroke-opacity:1;stroke-miterlimit:4;" d="M 294.88125 143.1 L 294.88125 7.2 " transform="matrix(1.25,0,0,1.25,0,0)"/>
<path style="fill:none;stroke-width:0.8;stroke-linecap:square;stroke-linejoin:miter;stroke:rgb(0%,0%,0%);stroke-opacity:1;stroke-miterlimit:4;" d="M 43.78125 143.1 L 294.88125 143.1 " transform="matrix(1.25,0,0,1.25,0,0)"/>
<path style="fill:none;stroke-width:0.8;stroke-linecap:square;stroke-linejoin:miter;stroke:rgb(0%,0%,0%);stroke-opacity:1;stroke-miterlimit:4;" d="M 43.78125 7.2 L 294.88125 7.2 " transform="matrix(1.25,0,0,1.25,0,0)"/>
<use xlink:href="#surface6" mask="url(#mask0)"/>
<path style="fill:none;stroke-width:1.5;stroke-linecap:square;stroke-linejoin:round;stroke:rgb(12.156863%,46.666667%,70.588235%);stroke-opacity:1;stroke-miterlimit:4;" d="M 52.78125 20.3 L 72.78125 20.3 " transform="matrix(1.25,0,0,1.25,0,0)"/>
<path style=" stroke:none;fill-rule:nonzero;fill:rgb(0%,0%,0%);fill-opacity:1;" d="M 107.476562 24.226562 C 107.757812 23.71875 108.09375 23.347656 108.484375 23.109375 C 108.875 22.867188 109.335938 22.75 109.863281 22.75 C 110.574219 22.75 111.125 22.996094 111.511719 23.496094 C 111.898438 23.992188 112.09375 24.703125 112.09375 25.621094 L 112.09375 29.75 L 110.960938 29.75 L 110.960938 25.660156 C 110.960938 25.003906 110.847656 24.519531 110.613281 24.203125 C 110.382812 23.882812 110.027344 23.726562 109.554688 23.726562 C 108.96875 23.726562 108.511719 23.917969 108.171875 24.304688 C 107.835938 24.691406 107.664062 25.21875 107.664062 25.886719 L 107.664062 29.75 L 106.539062 29.75 L 106.539062 25.660156 C 106.539062 25 106.421875 24.511719 106.1875 24.199219 C 105.957031 23.882812 105.601562 23.726562 105.117188 23.726562 C 104.539062 23.726562 104.085938 23.917969 103.746094 24.308594 C 103.410156 24.695312 103.242188 25.222656 103.242188 25.886719 L 103.242188 29.75 L 102.109375 29.75 L 102.109375 22.914062 L 103.242188 22.914062 L 103.242188 23.976562 C 103.496094 23.554688 103.804688 23.246094 104.164062 23.046875 C 104.519531 22.847656 104.945312 22.75 105.4375 22.75 C 105.933594 22.75 106.359375 22.875 106.703125 23.128906 C 107.054688 23.378906 107.308594 23.746094 107.476562 24.226562 Z M 107.476562 24.226562 "/>
<path style=" stroke:none;fill-rule:nonzero;fill:rgb(0%,0%,0%);fill-opacity:1;" d="M 120.179688 26.050781 L 120.179688 26.597656 L 115.015625 26.597656 C 115.0625 27.371094 115.296875 27.960938 115.714844 28.367188 C 116.128906 28.769531 116.710938 28.972656 117.457031 28.972656 C 117.886719 28.972656 118.304688 28.921875 118.710938 28.816406 C 119.113281 28.710938 119.515625 28.550781 119.917969 28.339844 L 119.917969 29.402344 C 119.511719 29.570312 119.101562 29.703125 118.675781 29.792969 C 118.253906 29.882812 117.824219 29.925781 117.390625 29.925781 C 116.296875 29.925781 115.433594 29.609375 114.796875 28.976562 C 114.160156 28.339844 113.84375 27.480469 113.84375 26.398438 C 113.84375 25.277344 114.144531 24.390625 114.75 23.734375 C 115.351562 23.078125 116.167969 22.75 117.195312 22.75 C 118.113281 22.75 118.839844 23.042969 119.375 23.636719 C 119.910156 24.226562 120.179688 25.03125 120.179688 26.050781 Z M 119.054688 25.71875 C 119.046875 25.105469 118.875 24.617188 118.539062 24.25 C 118.203125 23.882812 117.757812 23.699219 117.207031 23.699219 C 116.578125 23.699219 116.078125 23.875 115.703125 24.230469 C 115.324219 24.585938 115.109375 25.082031 115.050781 25.726562 Z M 119.054688 25.71875 "/>
<path style=" stroke:none;fill-rule:nonzero;fill:rgb(0%,0%,0%);fill-opacity:1;" d="M 125.128906 26.3125 C 124.222656 26.3125 123.59375 26.417969 123.242188 26.625 C 122.890625 26.832031 122.714844 27.183594 122.714844 27.6875 C 122.714844 28.085938 122.847656 28.402344 123.109375 28.636719 C 123.375 28.867188 123.730469 28.984375 124.179688 28.984375 C 124.804688 28.984375 125.304688 28.765625 125.679688 28.324219 C 126.058594 27.882812 126.246094 27.292969 126.246094 26.5625 L 126.246094 26.3125 Z M 127.367188 25.847656 L 127.367188 29.75 L 126.246094 29.75 L 126.246094 28.710938 C 125.988281 29.125 125.667969 29.429688 125.285156 29.628906 C 124.902344 29.828125 124.4375 29.925781 123.882812 29.925781 C 123.183594 29.925781 122.625 29.730469 122.210938 29.335938 C 121.800781 28.941406 121.59375 28.417969 121.59375 27.757812 C 121.59375 26.988281 121.851562 26.410156 122.363281 26.019531 C 122.878906 25.628906 123.648438 25.433594 124.667969 25.433594 L 126.246094 25.433594 L 126.246094 25.324219 C 126.246094 24.804688 126.074219 24.40625 125.734375 24.125 C 125.394531 23.839844 124.917969 23.699219 124.304688 23.699219 C 123.914062 23.699219 123.53125 23.746094 123.160156 23.839844 C 122.792969 23.933594 122.4375 24.074219 122.09375 24.261719 L 122.09375 23.222656 C 122.503906 23.0625 122.902344 22.945312 123.289062 22.867188 C 123.675781 22.789062 124.054688 22.75 124.417969 22.75 C 125.410156 22.75 126.148438 23.003906 126.636719 23.519531 C 127.125 24.03125 127.367188 24.804688 127.367188 25.847656 Z M 127.367188 25.847656 "/>
<path style=" stroke:none;fill-rule:nonzero;fill:rgb(0%,0%,0%);fill-opacity:1;" d="M 135.363281 25.621094 L 135.363281 29.75 L 134.242188 29.75 L 134.242188 25.660156 C 134.242188 25.011719 134.117188 24.527344 133.863281 24.207031 C 133.609375 23.886719 133.230469 23.726562 132.726562 23.726562 C 132.121094 23.726562 131.644531 23.917969 131.292969 24.304688 C 130.941406 24.691406 130.765625 25.21875 130.765625 25.886719 L 130.765625 29.75 L 129.636719 29.75 L 129.636719 22.914062 L 130.765625 22.914062 L 130.765625 23.976562 C 131.035156 23.5625 131.351562 23.257812 131.714844 23.054688 C 132.082031 22.851562 132.5 22.75 132.976562 22.75 C 133.761719 22.75 134.355469 22.992188 134.757812 23.476562 C 135.164062 23.960938 135.363281 24.675781 135.363281 25.621094 Z M 135.363281 25.621094 "/>
<path style=" stroke:none;fill-rule:nonzero;fill:rgb(0%,0%,0%);fill-opacity:1;" d="M 144.371094 21.449219 C 143.738281 21.449219 143.261719 21.761719 142.941406 22.386719 C 142.621094 23.007812 142.460938 23.949219 142.460938 25.203125 C 142.460938 26.449219 142.621094 27.386719 142.941406 28.011719 C 143.261719 28.636719 143.738281 28.949219 144.371094 28.949219 C 145.011719 28.949219 145.492188 28.636719 145.808594 28.011719 C 146.128906 27.386719 146.289062 26.449219 146.289062 25.203125 C 146.289062 23.949219 146.128906 23.007812 145.808594 22.386719 C 145.492188 21.761719 145.011719 21.449219 144.371094 21.449219 Z M 144.371094 20.472656 C 145.394531 20.472656 146.175781 20.875 146.714844 21.683594 C 147.253906 22.492188 147.523438 23.664062 147.523438 25.203125 C 147.523438 26.734375 147.253906 27.90625 146.714844 28.714844 C 146.175781 29.523438 145.394531 29.925781 144.371094 29.925781 C 143.351562 29.925781 142.570312 29.523438 142.03125 28.714844 C 141.492188 27.90625 141.222656 26.734375 141.222656 25.203125 C 141.222656 23.664062 141.492188 22.492188 142.03125 21.683594 C 142.570312 20.875 143.351562 20.472656 144.371094 20.472656 Z M 144.371094 20.472656 "/>
<path style=" stroke:none;fill-rule:nonzero;fill:rgb(0%,0%,0%);fill-opacity:1;" d="M 149.816406 28.199219 L 151.105469 28.199219 L 151.105469 29.25 L 150.105469 31.203125 L 149.316406 31.203125 L 149.816406 29.25 Z M 149.816406 28.199219 "/>
<path style=" stroke:none;fill-rule:nonzero;fill:rgb(0%,0%,0%);fill-opacity:1;" d="M 161.835938 23.113281 L 161.835938 24.175781 C 161.515625 24.011719 161.1875 23.890625 160.84375 23.8125 C 160.503906 23.730469 160.148438 23.6875 159.78125 23.6875 C 159.226562 23.6875 158.808594 23.773438 158.53125 23.945312 C 158.25 24.113281 158.109375 24.371094 158.109375 24.714844 C 158.109375 24.972656 158.210938 25.179688 158.410156 25.328125 C 158.609375 25.476562 159.011719 25.617188 159.613281 25.75 L 160 25.835938 C 160.796875 26.007812 161.359375 26.246094 161.695312 26.558594 C 162.03125 26.871094 162.203125 27.304688 162.203125 27.863281 C 162.203125 28.496094 161.949219 29 161.445312 29.371094 C 160.945312 29.742188 160.253906 29.925781 159.375 29.925781 C 159.007812 29.925781 158.628906 29.890625 158.230469 29.820312 C 157.832031 29.746094 157.414062 29.640625 156.976562 29.5 L 156.976562 28.339844 C 157.390625 28.554688 157.800781 28.714844 158.203125 28.824219 C 158.605469 28.929688 159.003906 28.984375 159.398438 28.984375 C 159.929688 28.984375 160.335938 28.894531 160.617188 28.714844 C 160.90625 28.53125 161.046875 28.277344 161.046875 27.949219 C 161.046875 27.644531 160.945312 27.410156 160.738281 27.246094 C 160.535156 27.082031 160.082031 26.925781 159.386719 26.777344 L 158.996094 26.683594 C 158.300781 26.539062 157.796875 26.3125 157.488281 26.011719 C 157.179688 25.707031 157.023438 25.289062 157.023438 24.761719 C 157.023438 24.117188 157.253906 23.621094 157.710938 23.273438 C 158.164062 22.921875 158.8125 22.75 159.648438 22.75 C 160.0625 22.75 160.453125 22.777344 160.820312 22.839844 C 161.1875 22.898438 161.523438 22.992188 161.835938 23.113281 Z M 161.835938 23.113281 "/>
<path style=" stroke:none;fill-rule:nonzero;fill:rgb(0%,0%,0%);fill-opacity:1;" d="M 165.101562 20.972656 L 165.101562 22.914062 L 167.414062 22.914062 L 167.414062 23.785156 L 165.101562 23.785156 L 165.101562 27.496094 C 165.101562 28.054688 165.175781 28.410156 165.328125 28.570312 C 165.480469 28.730469 165.792969 28.808594 166.261719 28.808594 L 167.414062 28.808594 L 167.414062 29.75 L 166.261719 29.75 C 165.394531 29.75 164.796875 29.585938 164.464844 29.265625 C 164.136719 28.941406 163.972656 28.351562 163.972656 27.496094 L 163.972656 23.785156 L 163.148438 23.785156 L 163.148438 22.914062 L 163.972656 22.914062 L 163.972656 20.972656 Z M 165.101562 20.972656 "/>
<path style=" stroke:none;fill-rule:nonzero;fill:rgb(0%,0%,0%);fill-opacity:1;" d="M 173.386719 23.949219 L 173.386719 20.25 L 174.511719 20.25 L 174.511719 29.75 L 173.386719 29.75 L 173.386719 28.722656 C 173.152344 29.128906 172.855469 29.429688 172.492188 29.628906 C 172.132812 29.828125 171.703125 29.925781 171.195312 29.925781 C 170.371094 29.925781 169.699219 29.597656 169.179688 28.9375 C 168.660156 28.277344 168.402344 27.410156 168.402344 26.335938 C 168.402344 25.261719 168.660156 24.394531 169.179688 23.738281 C 169.699219 23.078125 170.371094 22.75 171.195312 22.75 C 171.703125 22.75 172.132812 22.847656 172.492188 23.046875 C 172.855469 23.242188 173.152344 23.542969 173.386719 23.949219 Z M 169.5625 26.335938 C 169.5625 27.160156 169.730469 27.808594 170.070312 28.28125 C 170.410156 28.75 170.878906 28.984375 171.472656 28.984375 C 172.066406 28.984375 172.535156 28.75 172.875 28.28125 C 173.21875 27.808594 173.386719 27.160156 173.386719 26.335938 C 173.386719 25.511719 173.21875 24.863281 172.875 24.394531 C 172.535156 23.921875 172.066406 23.6875 171.472656 23.6875 C 170.878906 23.6875 170.410156 23.921875 170.070312 24.394531 C 169.730469 24.863281 169.5625 25.511719 169.5625 26.335938 Z M 169.5625 26.335938 "/>
<path style=" stroke:none;fill-rule:nonzero;fill:rgb(0%,0%,0%);fill-opacity:1;" d="M 181.171875 28.710938 L 183.183594 28.710938 L 183.183594 21.757812 L 180.992188 22.199219 L 180.992188 21.074219 L 183.171875 20.636719 L 184.40625 20.636719 L 184.40625 28.710938 L 186.417969 28.710938 L 186.417969 29.75 L 181.171875 29.75 Z M 181.171875 28.710938 "/>
<path style="fill:none;stroke-width:1.5;stroke-linecap:butt;stroke-linejoin:round;stroke:rgb(74.901961%,0%,74.901961%);stroke-opacity:1;stroke-dasharray:5.55,2.4;stroke-miterlimit:4;" d="M 52.78125 34.975 L 72.78125 34.975 " transform="matrix(1.25,0,0,1.25,0,0)"/>
<path style=" stroke:none;fill-rule:nonzero;fill:rgb(0%,0%,0%);fill-opacity:1;" d="M 107.476562 42.570312 C 107.757812 42.066406 108.09375 41.695312 108.484375 41.453125 C 108.875 41.214844 109.335938 41.09375 109.863281 41.09375 C 110.574219 41.09375 111.125 41.34375 111.511719 41.84375 C 111.898438 42.339844 112.09375 43.050781 112.09375 43.96875 L 112.09375 48.09375 L 110.960938 48.09375 L 110.960938 44.003906 C 110.960938 43.351562 110.847656 42.863281 110.613281 42.546875 C 110.382812 42.230469 110.027344 42.070312 109.554688 42.070312 C 108.96875 42.070312 108.511719 42.265625 108.171875 42.652344 C 107.835938 43.039062 107.664062 43.5625 107.664062 44.230469 L 107.664062 48.09375 L 106.539062 48.09375 L 106.539062 44.003906 C 106.539062 43.347656 106.421875 42.859375 106.1875 42.542969 C 105.957031 42.230469 105.601562 42.070312 105.117188 42.070312 C 104.539062 42.070312 104.085938 42.265625 103.746094 42.652344 C 103.410156 43.042969 103.242188 43.566406 103.242188 44.230469 L 103.242188 48.09375 L 102.109375 48.09375 L 102.109375 41.257812 L 103.242188 41.257812 L 103.242188 42.320312 C 103.496094 41.902344 103.804688 41.59375 104.164062 41.394531 C 104.519531 41.195312 104.945312 41.09375 105.4375 41.09375 C 105.933594 41.09375 106.359375 41.222656 106.703125 41.472656 C 107.054688 41.726562 107.308594 42.089844 107.476562 42.570312 Z M 107.476562 42.570312 "/>
<path style=" stroke:none;fill-rule:nonzero;fill:rgb(0%,0%,0%);fill-opacity:1;" d="M 120.179688 44.394531 L 120.179688 44.945312 L 115.015625 44.945312 C 115.0625 45.71875 115.296875 46.308594 115.714844 46.710938 C 116.128906 47.117188 116.710938 47.320312 117.457031 47.320312 C 117.886719 47.320312 118.304688 47.265625 118.710938 47.160156 C 119.113281 47.054688 119.515625 46.898438 119.917969 46.683594 L 119.917969 47.746094 C 119.511719 47.917969 119.101562 48.046875 118.675781 48.136719 C 118.253906 48.226562 117.824219 48.273438 117.390625 48.273438 C 116.296875 48.273438 115.433594 47.957031 114.796875 47.320312 C 114.160156 46.6875 113.84375 45.828125 113.84375 44.742188 C 113.84375 43.625 114.144531 42.738281 114.75 42.082031 C 115.351562 41.425781 116.167969 41.09375 117.195312 41.09375 C 118.113281 41.09375 118.839844 41.390625 119.375 41.984375 C 119.910156 42.574219 120.179688 43.378906 120.179688 44.394531 Z M 119.054688 44.066406 C 119.046875 43.453125 118.875 42.964844 118.539062 42.597656 C 118.203125 42.230469 117.757812 42.046875 117.207031 42.046875 C 116.578125 42.046875 116.078125 42.222656 115.703125 42.578125 C 115.324219 42.933594 115.109375 43.429688 115.050781 44.074219 Z M 119.054688 44.066406 "/>
<path style=" stroke:none;fill-rule:nonzero;fill:rgb(0%,0%,0%);fill-opacity:1;" d="M 125.128906 44.660156 C 124.222656 44.660156 123.59375 44.761719 123.242188 44.96875 C 122.890625 45.175781 122.714844 45.53125 122.714844 46.03125 C 122.714844 46.429688 122.847656 46.746094 123.109375 46.980469 C 123.375 47.214844 123.730469 47.332031 124.179688 47.332031 C 124.804688 47.332031 125.304688 47.109375 125.679688 46.667969 C 126.058594 46.226562 126.246094 45.640625 126.246094 44.910156 L 126.246094 44.660156 Z M 127.367188 44.195312 L 127.367188 48.09375 L 126.246094 48.09375 L 126.246094 47.058594 C 125.988281 47.472656 125.667969 47.777344 125.285156 47.976562 C 124.902344 48.175781 124.4375 48.273438 123.882812 48.273438 C 123.183594 48.273438 122.625 48.078125 122.210938 47.683594 C 121.800781 47.289062 121.59375 46.765625 121.59375 46.105469 C 121.59375 45.335938 121.851562 44.757812 122.363281 44.367188 C 122.878906 43.976562 123.648438 43.78125 124.667969 43.78125 L 126.246094 43.78125 L 126.246094 43.667969 C 126.246094 43.152344 126.074219 42.753906 125.734375 42.46875 C 125.394531 42.1875 124.917969 42.046875 124.304688 42.046875 C 123.914062 42.046875 123.53125 42.09375 123.160156 42.1875 C 122.792969 42.28125 122.4375 42.421875 122.09375 42.609375 L 122.09375 41.570312 C 122.503906 41.410156 122.902344 41.292969 123.289062 41.214844 C 123.675781 41.136719 124.054688 41.09375 124.417969 41.09375 C 125.410156 41.09375 126.148438 41.351562 126.636719 41.863281 C 127.125 42.375 127.367188 43.152344 127.367188 44.195312 Z M 127.367188 44.195312 "/>
<path style=" stroke:none;fill-rule:nonzero;fill:rgb(0%,0%,0%);fill-opacity:1;" d="M 135.363281 43.96875 L 135.363281 48.09375 L 134.242188 48.09375 L 134.242188 44.003906 C 134.242188 43.359375 134.117188 42.875 133.863281 42.554688 C 133.609375 42.234375 133.230469 42.070312 132.726562 42.070312 C 132.121094 42.070312 131.644531 42.265625 131.292969 42.652344 C 130.941406 43.039062 130.765625 43.5625 130.765625 44.230469 L 130.765625 48.09375 L 129.636719 48.09375 L 129.636719 41.257812 L 130.765625 41.257812 L 130.765625 42.320312 C 131.035156 41.910156 131.351562 41.601562 131.714844 41.398438 C 132.082031 41.195312 132.5 41.09375 132.976562 41.09375 C 133.761719 41.09375 134.355469 41.339844 134.757812 41.824219 C 135.164062 42.308594 135.363281 43.023438 135.363281 43.96875 Z M 135.363281 43.96875 "/>
<path style=" stroke:none;fill-rule:nonzero;fill:rgb(0%,0%,0%);fill-opacity:1;" d="M 144.371094 39.792969 C 143.738281 39.792969 143.261719 40.105469 142.941406 40.730469 C 142.621094 41.355469 142.460938 42.292969 142.460938 43.546875 C 142.460938 44.796875 142.621094 45.734375 142.941406 46.359375 C 143.261719 46.984375 143.738281 47.296875 144.371094 47.296875 C 145.011719 47.296875 145.492188 46.984375 145.808594 46.359375 C 146.128906 45.734375 146.289062 44.796875 146.289062 43.546875 C 146.289062 42.292969 146.128906 41.355469 145.808594 40.730469 C 145.492188 40.105469 145.011719 39.792969 144.371094 39.792969 Z M 144.371094 38.816406 C 145.394531 38.816406 146.175781 39.222656 146.714844 40.03125 C 147.253906 40.839844 147.523438 42.011719 147.523438 43.546875 C 147.523438 45.082031 147.253906 46.253906 146.714844 47.0625 C 146.175781 47.871094 145.394531 48.273438 144.371094 48.273438 C 143.351562 48.273438 142.570312 47.871094 142.03125 47.0625 C 141.492188 46.253906 141.222656 45.082031 141.222656 43.546875 C 141.222656 42.011719 141.492188 40.839844 142.03125 40.03125 C 142.570312 39.222656 143.351562 38.816406 144.371094 38.816406 Z M 144.371094 38.816406 "/>
<path style=" stroke:none;fill-rule:nonzero;fill:rgb(0%,0%,0%);fill-opacity:1;" d="M 149.816406 46.542969 L 151.105469 46.542969 L 151.105469 47.59375 L 150.105469 49.546875 L 149.316406 49.546875 L 149.816406 47.59375 Z M 149.816406 46.542969 "/>
<path style=" stroke:none;fill-rule:nonzero;fill:rgb(0%,0%,0%);fill-opacity:1;" d="M 161.835938 41.460938 L 161.835938 42.523438 C 161.515625 42.359375 161.1875 42.238281 160.84375 42.15625 C 160.503906 42.074219 160.148438 42.035156 159.78125 42.035156 C 159.226562 42.035156 158.808594 42.121094 158.53125 42.289062 C 158.25 42.460938 158.109375 42.71875 158.109375 43.058594 C 158.109375 43.320312 158.210938 43.523438 158.410156 43.671875 C 158.609375 43.820312 159.011719 43.964844 159.613281 44.097656 L 160 44.183594 C 160.796875 44.355469 161.359375 44.59375 161.695312 44.90625 C 162.03125 45.21875 162.203125 45.652344 162.203125 46.207031 C 162.203125 46.84375 161.949219 47.347656 161.445312 47.71875 C 160.945312 48.089844 160.253906 48.273438 159.375 48.273438 C 159.007812 48.273438 158.628906 48.238281 158.230469 48.164062 C 157.832031 48.09375 157.414062 47.988281 156.976562 47.84375 L 156.976562 46.683594 C 157.390625 46.902344 157.800781 47.0625 158.203125 47.171875 C 158.605469 47.277344 159.003906 47.332031 159.398438 47.332031 C 159.929688 47.332031 160.335938 47.242188 160.617188 47.058594 C 160.90625 46.878906 161.046875 46.625 161.046875 46.292969 C 161.046875 45.988281 160.945312 45.757812 160.738281 45.59375 C 160.535156 45.429688 160.082031 45.273438 159.386719 45.121094 L 158.996094 45.03125 C 158.300781 44.886719 157.796875 44.660156 157.488281 44.355469 C 157.179688 44.054688 157.023438 43.636719 157.023438 43.109375 C 157.023438 42.464844 157.253906 41.96875 157.710938 41.621094 C 158.164062 41.269531 158.8125 41.09375 159.648438 41.09375 C 160.0625 41.09375 160.453125 41.125 160.820312 41.1875 C 161.1875 41.246094 161.523438 41.339844 161.835938 41.460938 Z M 161.835938 41.460938 "/>
<path style=" stroke:none;fill-rule:nonzero;fill:rgb(0%,0%,0%);fill-opacity:1;" d="M 165.101562 39.316406 L 165.101562 41.257812 L 167.414062 41.257812 L 167.414062 42.132812 L 165.101562 42.132812 L 165.101562 45.84375 C 165.101562 46.402344 165.175781 46.757812 165.328125 46.917969 C 165.480469 47.078125 165.792969 47.15625 166.261719 47.15625 L 167.414062 47.15625 L 167.414062 48.09375 L 166.261719 48.09375 C 165.394531 48.09375 164.796875 47.933594 164.464844 47.609375 C 164.136719 47.285156 163.972656 46.699219 163.972656 45.84375 L 163.972656 42.132812 L 163.148438 42.132812 L 163.148438 41.257812 L 163.972656 41.257812 L 163.972656 39.316406 Z M 165.101562 39.316406 "/>
<path style=" stroke:none;fill-rule:nonzero;fill:rgb(0%,0%,0%);fill-opacity:1;" d="M 173.386719 42.296875 L 173.386719 38.597656 L 174.511719 38.597656 L 174.511719 48.09375 L 173.386719 48.09375 L 173.386719 47.070312 C 173.152344 47.476562 172.855469 47.777344 172.492188 47.976562 C 172.132812 48.175781 171.703125 48.273438 171.195312 48.273438 C 170.371094 48.273438 169.699219 47.945312 169.179688 47.285156 C 168.660156 46.625 168.402344 45.757812 168.402344 44.683594 C 168.402344 43.609375 168.660156 42.742188 169.179688 42.082031 C 169.699219 41.425781 170.371094 41.09375 171.195312 41.09375 C 171.703125 41.09375 172.132812 41.195312 172.492188 41.390625 C 172.855469 41.589844 173.152344 41.890625 173.386719 42.296875 Z M 169.5625 44.683594 C 169.5625 45.507812 169.730469 46.15625 170.070312 46.625 C 170.410156 47.097656 170.878906 47.332031 171.472656 47.332031 C 172.066406 47.332031 172.535156 47.097656 172.875 46.625 C 173.21875 46.15625 173.386719 45.507812 173.386719 44.683594 C 173.386719 43.859375 173.21875 43.210938 172.875 42.738281 C 172.535156 42.269531 172.066406 42.035156 171.472656 42.035156 C 170.878906 42.035156 170.410156 42.269531 170.070312 42.738281 C 169.730469 43.210938 169.5625 43.859375 169.5625 44.683594 Z M 169.5625 44.683594 "/>
<path style=" stroke:none;fill-rule:nonzero;fill:rgb(0%,0%,0%);fill-opacity:1;" d="M 182.019531 47.058594 L 186.320312 47.058594 L 186.320312 48.09375 L 180.535156 48.09375 L 180.535156 47.058594 C 181.003906 46.574219 181.640625 45.925781 182.449219 45.109375 C 183.257812 44.292969 183.765625 43.765625 183.972656 43.527344 C 184.367188 43.085938 184.640625 42.710938 184.796875 42.402344 C 184.957031 42.097656 185.035156 41.792969 185.035156 41.496094 C 185.035156 41.011719 184.863281 40.617188 184.523438 40.3125 C 184.183594 40.007812 183.742188 39.855469 183.195312 39.855469 C 182.808594 39.855469 182.402344 39.921875 181.972656 40.054688 C 181.542969 40.191406 181.085938 40.394531 180.597656 40.667969 L 180.597656 39.421875 C 181.09375 39.222656 181.554688 39.070312 181.988281 38.96875 C 182.417969 38.867188 182.816406 38.816406 183.171875 38.816406 C 184.117188 38.816406 184.871094 39.054688 185.429688 39.527344 C 185.992188 40 186.273438 40.628906 186.273438 41.417969 C 186.273438 41.792969 186.203125 42.148438 186.0625 42.484375 C 185.921875 42.820312 185.667969 43.214844 185.296875 43.667969 C 185.195312 43.789062 184.871094 44.128906 184.324219 44.691406 C 183.78125 45.257812 183.011719 46.046875 182.019531 47.058594 Z M 182.019531 47.058594 "/>
<path style="fill:none;stroke-width:1.5;stroke-linecap:butt;stroke-linejoin:round;stroke:rgb(0%,50.196078%,0%);stroke-opacity:1;stroke-dasharray:9.6,2.4,1.5,2.4;stroke-miterlimit:4;" d="M 52.78125 49.65625 L 72.78125 49.65625 " transform="matrix(1.25,0,0,1.25,0,0)"/>
<path style=" stroke:none;fill-rule:nonzero;fill:rgb(0%,0%,0%);fill-opacity:1;" d="M 107.476562 60.921875 C 107.757812 60.414062 108.09375 60.042969 108.484375 59.804688 C 108.875 59.5625 109.335938 59.445312 109.863281 59.445312 C 110.574219 59.445312 111.125 59.691406 111.511719 60.191406 C 111.898438 60.6875 112.09375 61.398438 112.09375 62.316406 L 112.09375 66.445312 L 110.960938 66.445312 L 110.960938 62.355469 C 110.960938 61.699219 110.847656 61.214844 110.613281 60.898438 C 110.382812 60.578125 110.027344 60.421875 109.554688 60.421875 C 108.96875 60.421875 108.511719 60.613281 108.171875 61 C 107.835938 61.386719 107.664062 61.914062 107.664062 62.582031 L 107.664062 66.445312 L 106.539062 66.445312 L 106.539062 62.355469 C 106.539062 61.695312 106.421875 61.207031 106.1875 60.894531 C 105.957031 60.578125 105.601562 60.421875 105.117188 60.421875 C 104.539062 60.421875 104.085938 60.613281 103.746094 61.003906 C 103.410156 61.390625 103.242188 61.917969 103.242188 62.582031 L 103.242188 66.445312 L 102.109375 66.445312 L 102.109375 59.609375 L 103.242188 59.609375 L 103.242188 60.671875 C 103.496094 60.25 103.804688 59.941406 104.164062 59.742188 C 104.519531 59.542969 104.945312 59.445312 105.4375 59.445312 C 105.933594 59.445312 106.359375 59.570312 106.703125 59.824219 C 107.054688 60.074219 107.308594 60.441406 107.476562 60.921875 Z M 107.476562 60.921875 "/>
<path style=" stroke:none;fill-rule:nonzero;fill:rgb(0%,0%,0%);fill-opacity:1;" d="M 120.179688 62.746094 L 120.179688 63.292969 L 115.015625 63.292969 C 115.0625 64.066406 115.296875 64.65625 115.714844 65.0625 C 116.128906 65.464844 116.710938 65.667969 117.457031 65.667969 C 117.886719 65.667969 118.304688 65.617188 118.710938 65.511719 C 119.113281 65.40625 119.515625 65.246094 119.917969 65.035156 L 119.917969 66.097656 C 119.511719 66.265625 119.101562 66.398438 118.675781 66.488281 C 118.253906 66.578125 117.824219 66.621094 117.390625 66.621094 C 116.296875 66.621094 115.433594 66.304688 114.796875 65.671875 C 114.160156 65.035156 113.84375 64.175781 113.84375 63.09375 C 113.84375 61.972656 114.144531 61.085938 114.75 60.429688 C 115.351562 59.773438 116.167969 59.445312 117.195312 59.445312 C 118.113281 59.445312 118.839844 59.738281 119.375 60.332031 C 119.910156 60.921875 120.179688 61.726562 120.179688 62.746094 Z M 119.054688 62.414062 C 119.046875 61.800781 118.875 61.3125 118.539062 60.945312 C 118.203125 60.578125 117.757812 60.394531 117.207031 60.394531 C 116.578125 60.394531 116.078125 60.570312 115.703125 60.925781 C 115.324219 61.28125 115.109375 61.777344 115.050781 62.421875 Z M 119.054688 62.414062 "/>
<path style=" stroke:none;fill-rule:nonzero;fill:rgb(0%,0%,0%);fill-opacity:1;" d="M 125.128906 63.007812 C 124.222656 63.007812 123.59375 63.113281 123.242188 63.320312 C 122.890625 63.527344 122.714844 63.878906 122.714844 64.382812 C 122.714844 64.78125 122.847656 65.097656 123.109375 65.332031 C 123.375 65.5625 123.730469 65.679688 124.179688 65.679688 C 124.804688 65.679688 125.304688 65.460938 125.679688 65.019531 C 126.058594 64.578125 126.246094 63.988281 126.246094 63.257812 L 126.246094 63.007812 Z M 127.367188 62.542969 L 127.367188 66.445312 L 126.246094 66.445312 L 126.246094 65.40625 C 125.988281 65.820312 125.667969 66.125 125.285156 66.324219 C 124.902344 66.523438 124.4375 66.621094 123.882812 66.621094 C 123.183594 66.621094 122.625 66.425781 122.210938 66.03125 C 121.800781 65.636719 121.59375 65.113281 121.59375 64.453125 C 121.59375 63.683594 121.851562 63.105469 122.363281 62.714844 C 122.878906 62.324219 123.648438 62.128906 124.667969 62.128906 L 126.246094 62.128906 L 126.246094 62.019531 C 126.246094 61.5 126.074219 61.101562 125.734375 60.820312 C 125.394531 60.535156 124.917969 60.394531 124.304688 60.394531 C 123.914062 60.394531 123.53125 60.441406 123.160156 60.535156 C 122.792969 60.628906 122.4375 60.769531 122.09375 60.957031 L 122.09375 59.917969 C 122.503906 59.757812 122.902344 59.640625 123.289062 59.5625 C 123.675781 59.484375 124.054688 59.445312 124.417969 59.445312 C 125.410156 59.445312 126.148438 59.699219 126.636719 60.214844 C 127.125 60.726562 127.367188 61.5 127.367188 62.542969 Z M 127.367188 62.542969 "/>
<path style=" stroke:none;fill-rule:nonzero;fill:rgb(0%,0%,0%);fill-opacity:1;" d="M 135.363281 62.316406 L 135.363281 66.445312 L 134.242188 66.445312 L 134.242188 62.355469 C 134.242188 61.707031 134.117188 61.222656 133.863281 60.902344 C 133.609375 60.582031 133.230469 60.421875 132.726562 60.421875 C 132.121094 60.421875 131.644531 60.613281 131.292969 61 C 130.941406 61.386719 130.765625 61.914062 130.765625 62.582031 L 130.765625 66.445312 L 129.636719 66.445312 L 129.636719 59.609375 L 130.765625 59.609375 L 130.765625 60.671875 C 131.035156 60.257812 131.351562 59.953125 131.714844 59.75 C 132.082031 59.546875 132.5 59.445312 132.976562 59.445312 C 133.761719 59.445312 134.355469 59.6875 134.757812 60.171875 C 135.164062 60.65625 135.363281 61.371094 135.363281 62.316406 Z M 135.363281 62.316406 "/>
<path style=" stroke:none;fill-rule:nonzero;fill:rgb(0%,0%,0%);fill-opacity:1;" d="M 145.472656 61.53125 C 146.0625 61.65625 146.523438 61.917969 146.851562 62.320312 C 147.183594 62.71875 147.351562 63.210938 147.351562 63.796875 C 147.351562 64.695312 147.042969 65.390625 146.421875 65.882812 C 145.804688 66.375 144.925781 66.621094 143.785156 66.621094 C 143.40625 66.621094 143.011719 66.582031 142.605469 66.507812 C 142.203125 66.433594 141.785156 66.320312 141.351562 66.167969 L 141.351562 64.980469 C 141.695312 65.179688 142.066406 65.328125 142.472656 65.429688 C 142.882812 65.53125 143.308594 65.582031 143.75 65.582031 C 144.523438 65.582031 145.113281 65.429688 145.515625 65.125 C 145.921875 64.820312 146.125 64.378906 146.125 63.796875 C 146.125 63.257812 145.9375 62.835938 145.558594 62.535156 C 145.183594 62.230469 144.660156 62.082031 143.988281 62.082031 L 142.925781 62.082031 L 142.925781 61.066406 L 144.039062 61.066406 C 144.644531 61.066406 145.105469 60.945312 145.429688 60.703125 C 145.75 60.460938 145.910156 60.113281 145.910156 59.65625 C 145.910156 59.1875 145.746094 58.832031 145.414062 58.582031 C 145.082031 58.328125 144.609375 58.203125 143.988281 58.203125 C 143.652344 58.203125 143.289062 58.242188 142.902344 58.316406 C 142.515625 58.386719 142.089844 58.5 141.625 58.65625 L 141.625 57.558594 C 142.09375 57.425781 142.535156 57.328125 142.941406 57.265625 C 143.351562 57.199219 143.738281 57.167969 144.097656 57.167969 C 145.035156 57.167969 145.773438 57.378906 146.320312 57.804688 C 146.863281 58.230469 147.136719 58.804688 147.136719 59.527344 C 147.136719 60.03125 146.992188 60.460938 146.703125 60.808594 C 146.414062 61.15625 146.003906 61.394531 145.472656 61.53125 Z M 145.472656 61.53125 "/>
<path style=" stroke:none;fill-rule:nonzero;fill:rgb(0%,0%,0%);fill-opacity:1;" d="M 149.816406 64.894531 L 151.105469 64.894531 L 151.105469 65.945312 L 150.105469 67.898438 L 149.316406 67.898438 L 149.816406 65.945312 Z M 149.816406 64.894531 "/>
<path style=" stroke:none;fill-rule:nonzero;fill:rgb(0%,0%,0%);fill-opacity:1;" d="M 161.835938 59.808594 L 161.835938 60.871094 C 161.515625 60.707031 161.1875 60.585938 160.84375 60.507812 C 160.503906 60.425781 160.148438 60.382812 159.78125 60.382812 C 159.226562 60.382812 158.808594 60.46875 158.53125 60.640625 C 158.25 60.808594 158.109375 61.066406 158.109375 61.410156 C 158.109375 61.667969 158.210938 61.875 158.410156 62.023438 C 158.609375 62.171875 159.011719 62.3125 159.613281 62.445312 L 160 62.53125 C 160.796875 62.703125 161.359375 62.941406 161.695312 63.253906 C 162.03125 63.566406 162.203125 64 162.203125 64.558594 C 162.203125 65.191406 161.949219 65.695312 161.445312 66.066406 C 160.945312 66.4375 160.253906 66.621094 159.375 66.621094 C 159.007812 66.621094 158.628906 66.585938 158.230469 66.515625 C 157.832031 66.441406 157.414062 66.335938 156.976562 66.195312 L 156.976562 65.035156 C 157.390625 65.25 157.800781 65.410156 158.203125 65.519531 C 158.605469 65.625 159.003906 65.679688 159.398438 65.679688 C 159.929688 65.679688 160.335938 65.589844 160.617188 65.410156 C 160.90625 65.226562 161.046875 64.972656 161.046875 64.644531 C 161.046875 64.339844 160.945312 64.105469 160.738281 63.941406 C 160.535156 63.777344 160.082031 63.621094 159.386719 63.472656 L 158.996094 63.378906 C 158.300781 63.234375 157.796875 63.007812 157.488281 62.707031 C 157.179688 62.402344 157.023438 61.984375 157.023438 61.457031 C 157.023438 60.8125 157.253906 60.316406 157.710938 59.96875 C 158.164062 59.617188 158.8125 59.445312 159.648438 59.445312 C 160.0625 59.445312 160.453125 59.472656 160.820312 59.535156 C 161.1875 59.59375 161.523438 59.6875 161.835938 59.808594 Z M 161.835938 59.808594 "/>
<path style=" stroke:none;fill-rule:nonzero;fill:rgb(0%,0%,0%);fill-opacity:1;" d="M 165.101562 57.667969 L 165.101562 59.609375 L 167.414062 59.609375 L 167.414062 60.480469 L 165.101562 60.480469 L 165.101562 64.191406 C 165.101562 64.75 165.175781 65.105469 165.328125 65.265625 C 165.480469 65.425781 165.792969 65.503906 166.261719 65.503906 L 167.414062 65.503906 L 167.414062 66.445312 L 166.261719 66.445312 C 165.394531 66.445312 164.796875 66.28125 164.464844 65.960938 C 164.136719 65.636719 163.972656 65.046875 163.972656 64.191406 L 163.972656 60.480469 L 163.148438 60.480469 L 163.148438 59.609375 L 163.972656 59.609375 L 163.972656 57.667969 Z M 165.101562 57.667969 "/>
<path style=" stroke:none;fill-rule:nonzero;fill:rgb(0%,0%,0%);fill-opacity:1;" d="M 173.386719 60.644531 L 173.386719 56.945312 L 174.511719 56.945312 L 174.511719 66.445312 L 173.386719 66.445312 L 173.386719 65.417969 C 173.152344 65.824219 172.855469 66.125 172.492188 66.324219 C 172.132812 66.523438 171.703125 66.621094 171.195312 66.621094 C 170.371094 66.621094 169.699219 66.292969 169.179688 65.632812 C 168.660156 64.972656 168.402344 64.105469 168.402344 63.03125 C 168.402344 61.957031 168.660156 61.089844 169.179688 60.433594 C 169.699219 59.773438 170.371094 59.445312 171.195312 59.445312 C 171.703125 59.445312 172.132812 59.542969 172.492188 59.742188 C 172.855469 59.9375 173.152344 60.238281 173.386719 60.644531 Z M 169.5625 63.03125 C 169.5625 63.855469 169.730469 64.503906 170.070312 64.976562 C 170.410156 65.445312 170.878906 65.679688 171.472656 65.679688 C 172.066406 65.679688 172.535156 65.445312 172.875 64.976562 C 173.21875 64.503906 173.386719 63.855469 173.386719 63.03125 C 173.386719 62.207031 173.21875 61.558594 172.875 61.089844 C 172.535156 60.617188 172.066406 60.382812 171.472656 60.382812 C 170.878906 60.382812 170.410156 60.617188 170.070312 61.089844 C 169.730469 61.558594 169.5625 62.207031 169.5625 63.03125 Z M 169.5625 63.03125 "/>
<path style=" stroke:none;fill-rule:nonzero;fill:rgb(0%,0%,0%);fill-opacity:1;" d="M 181.171875 65.40625 L 183.183594 65.40625 L 183.183594 58.453125 L 180.992188 58.894531 L 180.992188 57.769531 L 183.171875 57.332031 L 184.40625 57.332031 L 184.40625 65.40625 L 186.417969 65.40625 L 186.417969 66.445312 L 181.171875 66.445312 Z M 181.171875 65.40625 "/>
</g>
</svg>
